<svg xmlns="http://www.w3.org/2000/svg" viewBox="0 0 597.31 187.96" width="597.31" height="187.96" role="img" aria-label="PintuWeb"><g transform="translate(36 127.46)"><path fill="#0f1b33" d="M23.32 24.49L8.09 24.49L8.09-65.51L22.97-65.51L22.97-54.67L23.96-54.67Q25.14-57.01 27.30-59.71Q29.47-62.40 33.19-64.37Q36.91-66.33 42.71-66.33L42.71-66.33Q50.33-66.33 56.43-62.46Q62.52-58.59 66.12-51.06Q69.73-43.54 69.73-32.64L69.73-32.64Q69.73-21.86 66.21-14.30Q62.70-6.74 56.57-2.78Q50.45 1.17 42.66 1.17L42.66 1.17Q37.09 1.17 33.34-0.73Q29.59-2.64 27.36-5.33Q25.14-8.03 23.96-10.37L23.96-10.37L23.32-10.37L23.32 24.49ZM38.55-11.37L38.55-11.37Q43.65-11.37 47.11-14.15Q50.57-16.93 52.32-21.77Q54.08-26.60 54.08-32.70L54.08-32.70Q54.08-38.79 52.35-43.56Q50.63-48.34 47.17-51.06Q43.71-53.79 38.55-53.79L38.55-53.79Q33.52-53.79 30.06-51.15Q26.60-48.52 24.81-43.80Q23.03-39.08 23.03-32.70L23.03-32.70Q23.03-26.31 24.81-21.50Q26.60-16.70 30.09-14.03Q33.57-11.37 38.55-11.37Z"/><path fill="#0f1b33" d="M95.80 0L80.57 0L80.57-65.51L95.80-65.51L95.80 0ZM88.19-74.77L88.19-74.77Q84.55-74.77 81.95-77.23Q79.34-79.69 79.34-83.09L79.34-83.09Q79.34-86.60 81.95-89.03Q84.55-91.46 88.19-91.46L88.19-91.46Q91.88-91.46 94.48-89.03Q97.09-86.60 97.09-83.14L97.09-83.14Q97.09-79.69 94.48-77.23Q91.88-74.77 88.19-74.77Z"/><path fill="#26469c" fill-rule="evenodd" d="M109.57 0V-38.85a28.62 28.62 0 0 1 57.25 0V0h-13.17V-38.85a15.46 15.46 0 0 0 -30.91 0V0z"/><path fill="#26469c" fill-opacity="0.45" d="M122.74 0V-33.44L142.06 -36.53V0z"/><path fill="#0f1b33" d="M198.23-65.51L210.89-65.51L210.89-53.55L198.23-53.55L198.23-18.46Q198.23-14.88 199.75-13.21Q201.28-11.54 204.73-11.54L204.73-11.54Q205.79-11.54 207.52-11.81Q209.25-12.07 210.30-12.30L210.30-12.30L212.70-0.53Q210.18 0.23 207.55 0.56Q204.91 0.88 202.51 0.88L202.51 0.88Q193.07 0.88 188.03-3.81Q183.00-8.50 183.00-17.17L183.00-17.17L183.00-53.55L173.68-53.55L173.68-65.51L183.00-65.51L183.00-81.09L198.23-81.09L198.23-65.51Z"/><path fill="#0f1b33" d="M243.00 0.82L243.00 0.82Q236.26 0.82 231.19-2.05Q226.12-4.92 223.34-10.46Q220.56-16.00 220.56-23.85L220.56-23.85L220.56-65.51L235.79-65.51L235.79-26.19Q235.79-19.63 239.22-15.88Q242.65-12.13 248.62-12.13L248.62-12.13Q252.67-12.13 255.83-13.89Q258.99-15.64 260.78-19.04Q262.57-22.44 262.57-27.13L262.57-27.13L262.57-65.51L277.86-65.51L277.86 0L263.39 0L263.27-13.07Q260.63-6.80 256.24-3.40L256.24-3.40Q250.85 0.82 243.00 0.82Z"/><path fill="#0f1b33" d="M321.05 0L305.64 0L286.13-65.51L302.18-65.51L308.63-39.84Q310.09-33.52 311.85-25.96L311.85-25.96Q313.08-20.63 314.25-14.47L314.25-14.47Q315.36-20.45 316.65-25.78L316.65-25.78Q318.47-33.34 320.11-39.84L320.11-39.84L326.73-65.51L341.26-65.51L347.71-39.84Q349.29-33.46 351.11-25.90L351.11-25.90Q352.34-20.51 353.51-14.41L353.51-14.41Q354.62-20.45 355.85-25.78L355.85-25.78Q357.49-33.34 359.07-39.84L359.07-39.84L365.52-65.51L381.69-65.51L362.12 0L346.71 0L339.04-26.72Q337.86-30.76 336.75-35.39Q335.64-40.02 334.58-44.88L334.58-44.88Q334.23-46.46 333.88-48.05L333.88-48.05Q333.53-46.46 333.18-44.88L333.18-44.88Q332.06-40.02 330.98-35.33Q329.89-30.64 328.72-26.72L328.72-26.72L321.05 0Z"/><path fill="#0f1b33" d="M418.90 1.35L418.90 1.35Q409.00 1.35 401.88-2.81Q394.76-6.97 390.92-14.53Q387.08-22.09 387.08-32.34L387.08-32.34Q387.08-42.48 390.86-50.10Q394.64-57.71 401.59-62.02Q408.53-66.33 417.90-66.33L417.90-66.33Q423.88-66.33 429.30-64.39Q434.72-62.46 438.91-58.42Q443.10-54.38 445.47-48.13Q447.85-41.89 447.85-33.28L447.85-33.28L447.85-28.48L402.20-28.48Q402.44-23.09 404.31-19.22L404.31-19.22Q406.42-14.94 410.23-12.77Q414.04-10.61 419.08-10.61L419.08-10.61Q422.42-10.61 425.14-11.57Q427.87-12.54 429.86-14.44Q431.85-16.35 432.85-19.10L432.85-19.10L446.85-16.23Q445.27-10.96 441.46-7.00Q437.65-3.05 431.94-0.85Q426.23 1.35 418.90 1.35ZM402.26-38.85L402.26-38.85L433.02-38.85Q432.67-42.48 431.44-45.53L431.44-45.53Q429.74-49.69 426.37-52.03Q423.00-54.38 417.96-54.38Q412.92-54.38 409.41-52.00Q405.89-49.63 404.08-45.70L404.08-45.70Q402.61-42.54 402.26-38.85Z"/><path fill="#0f1b33" d="M493.08 1.17L493.08 1.17Q487.52 1.17 483.77-0.73Q480.02-2.64 477.79-5.33Q475.56-8.03 474.39-10.37L474.39-10.37L473.40-10.37L473.40 0L458.51 0L458.51-87.30L473.75-87.30L473.75-54.67L474.39-54.67Q475.56-57.01 477.73-59.71Q479.90-62.40 483.62-64.37Q487.34-66.33 493.14-66.33L493.14-66.33Q500.76-66.33 506.85-62.46Q512.95-58.59 516.55-51.06Q520.15-43.54 520.15-32.64L520.15-32.64Q520.15-21.86 516.64-14.30Q513.12-6.74 507.00-2.78Q500.88 1.17 493.08 1.17ZM488.98-11.37L488.98-11.37Q494.08-11.37 497.54-14.15Q500.99-16.93 502.75-21.77Q504.51-26.60 504.51-32.70L504.51-32.70Q504.51-38.79 502.78-43.56Q501.05-48.34 497.59-51.06Q494.14-53.79 488.98-53.79L488.98-53.79Q483.94-53.79 480.49-51.15Q477.03-48.52 475.24-43.80Q473.45-39.08 473.45-32.70L473.45-32.70Q473.45-26.31 475.24-21.50Q477.03-16.70 480.51-14.03Q484.00-11.37 488.98-11.37Z"/></g></svg>